<svg width="909" height="205" viewBox="0 0 909 205" fill="none" xmlns="http://www.w3.org/2000/svg">
<path d="M416.824 125.071V143.87H334.73V130.696L386.351 72.1321H334.73V53.3325H395.835C401.569 53.3325 406.771 56.8166 409.094 62.2C411.417 67.5834 410.413 73.8741 406.553 78.2171L365.325 125.083H416.836L416.824 125.071Z" fill="#8FC0FF"/>
<path d="M510.387 53.3327H489.857L463.605 111.014L437.354 53.3327H416.824L453.347 133.563L450.419 139.987C442.314 153.718 435.285 164.17 425.438 164.17H416.824V182.849H425.438C446.862 182.849 458.367 163.311 466.763 149.036C466.932 148.758 467.077 148.468 467.21 148.165L510.374 53.3206L510.387 53.3327Z" fill="#8FC0FF"/>
<path d="M699.761 45.2634H681.083V61.3894H699.761V45.2634Z" fill="white"/>
<path d="M699.761 69.156H681.083V143.858H699.761V69.156Z" fill="white"/>
<path d="M837.177 143.87H825.225C812.571 143.87 802.3 133.612 802.3 120.946V22.1814H820.978V120.946C820.978 123.292 822.878 125.18 825.213 125.18H837.165V143.858L837.177 143.87Z" fill="white"/>
<path d="M908.77 143.87H876.107C854.622 143.87 837.201 126.45 837.201 104.965V92.4196C837.201 70.9344 854.622 53.514 876.107 53.514H890.091V22.1814H908.77V143.87ZM876.107 72.2047C864.941 72.2047 855.88 81.2536 855.88 92.4317V104.977C855.88 116.143 864.929 125.204 876.107 125.204H890.091V72.2168H876.107V72.2047Z" fill="white"/>
<path d="M789.029 143.871H751.03C727.126 143.871 709.1 124.043 709.1 97.7548C709.1 84.9556 713.758 73.4266 722.226 65.2608C730.211 57.5668 740.953 53.3206 752.47 53.3206C763.987 53.3206 774.366 57.7119 781.685 65.6721C789.065 73.717 792.972 84.8104 792.972 97.7548V107.191H729.243C732.279 117.897 740.53 124.998 751.043 124.998H789.041V143.871H789.029ZM729.4 88.3187H772.939C770.229 78.181 762.886 72.2048 752.47 72.2048C743.046 72.2048 733.041 77.31 729.4 88.3187Z" fill="white"/>
<path d="M318.338 143.871H280.34C256.435 143.871 238.41 124.043 238.41 97.7548C238.41 84.9556 243.068 73.4266 251.536 65.2608C259.52 57.5668 270.263 53.3206 281.78 53.3206C293.296 53.3206 303.676 57.7119 310.995 65.6721C318.375 73.717 322.282 84.8104 322.282 97.7548V107.191H258.552C261.589 117.897 269.839 124.998 280.352 124.998H318.35V143.871H318.338ZM258.71 88.3187H302.249C299.539 78.181 292.196 72.2048 281.78 72.2048C272.356 72.2048 262.351 77.31 258.71 88.3187Z" fill="#8FC0FF"/>
<path d="M636.104 53.3326H626.886C621.938 53.3326 617.256 54.4456 613.046 56.4296V22H594.367V143.87H613.046V85.8507C613.046 78.2051 619.24 72.0112 626.886 72.0112H636.104C643.75 72.0112 649.943 78.2051 649.943 85.8507V143.87H668.622V85.8507C668.622 67.8859 654.057 53.3326 636.104 53.3326Z" fill="white"/>
<path d="M553.575 147.246H540.739C524.008 147.246 510.399 133.636 510.399 116.905V111.776H529.077V116.905C529.077 123.329 534.303 128.555 540.727 128.555H553.563C559.986 128.555 565.212 123.329 565.212 116.905C565.212 112.09 562.188 107.711 557.676 106.005L530.045 95.5652C520.936 92.1174 514.814 83.262 514.814 73.5235C514.814 60.5307 525.387 49.9575 538.38 49.9575H557.204C570.197 49.9575 580.77 60.5307 580.77 73.5235V76.7051H562.091V73.5235C562.091 70.8378 559.902 68.6482 557.216 68.6482H538.392C535.707 68.6482 533.517 70.8378 533.517 73.5235C533.517 75.5438 534.787 77.3705 536.674 78.0843L564.317 88.5365C576.052 92.9763 583.927 104.372 583.927 116.917C583.927 133.648 570.318 147.258 553.587 147.258L553.575 147.246Z" fill="white"/>
<path d="M170.34 34.3269H151.58L140.9 9.42694L149.62 5.67694C153.55 3.99694 158.1 5.80694 159.78 9.73694L170.34 34.3269Z" fill="white"/>
<path d="M151.58 34.327H85.21V19.177L127.59 0.717008C132.05 -1.20299 137.22 0.866993 139.13 5.32699L140.9 9.427L151.58 34.327Z" fill="url(#paint0_linear_6558_100)"/>
<path d="M0 43.927V118.567C0 166.187 85.21 204.787 85.21 204.787V19.177C64.55 27.757 27.85 43.927 0 43.927Z" fill="white"/>
<path d="M170.42 43.927V139.907C170.42 148.457 165.93 156.387 158.6 160.777L85.21 204.787V43.917H170.42V43.927Z" fill="url(#paint1_linear_6558_100)"/>
<path d="M130.12 81.9871C119.09 81.9871 110.14 90.937 110.14 101.967C110.14 113.007 119.09 121.947 130.12 121.947H170.42V81.9871H130.12ZM130.11 112.847C124.1 112.847 119.23 107.977 119.23 101.967C119.23 95.957 124.1 91.087 130.11 91.087C136.12 91.087 140.99 95.957 140.99 101.967C140.99 107.977 136.12 112.847 130.11 112.847Z" fill="white"/>
<defs>
<linearGradient id="paint0_linear_6558_100" x1="118.39" y1="38.757" x2="118.4" y2="6.047" gradientUnits="userSpaceOnUse">
<stop stop-color="#61A5FF"/>
<stop offset="1" stop-color="#8FC0FF"/>
</linearGradient>
<linearGradient id="paint1_linear_6558_100" x1="127.81" y1="202.057" x2="127.81" y2="80.937" gradientUnits="userSpaceOnUse">
<stop stop-color="#61A5FF"/>
<stop offset="1" stop-color="#8FC0FF"/>
</linearGradient>
</defs>
</svg>
