<svg width="905" height="202" viewBox="0 0 905 202" fill="none" xmlns="http://www.w3.org/2000/svg">
<path d="M413.053 123.19V141.99H330.959V128.816L382.579 70.2513H330.959V51.4517H392.063C397.798 51.4517 403 54.9357 405.322 60.3192C407.645 65.7026 406.641 71.9933 402.782 76.3363L361.553 123.202H413.065L413.053 123.19Z" fill="#0058E3"/>
<path d="M506.615 51.4511H486.086L459.834 109.132L433.582 51.4511H413.053L449.575 131.682L446.648 138.106C438.542 151.837 431.513 162.289 421.666 162.289H413.053V180.968H421.666C443.091 180.968 454.596 161.43 462.991 147.155C463.161 146.877 463.306 146.586 463.439 146.284L506.603 51.439L506.615 51.4511Z" fill="#0058E3"/>
<path d="M695.99 43.3821H677.312V59.5081H695.99V43.3821Z" fill="#00368C"/>
<path d="M695.99 67.2749H677.312V141.977H695.99V67.2749Z" fill="#00368C"/>
<path d="M833.407 141.989H821.454C808.8 141.989 798.529 131.731 798.529 119.065V20.3H817.208V119.065C817.208 121.411 819.107 123.299 821.442 123.299H833.394V141.977L833.407 141.989Z" fill="#00368C"/>
<path d="M905 141.989H872.337C850.851 141.989 833.431 124.569 833.431 103.084V90.5385C833.431 69.0532 850.851 51.6327 872.337 51.6327H886.321V20.3H905V141.989ZM872.337 70.3235C861.171 70.3235 852.109 79.3724 852.109 90.5506V103.096C852.109 114.262 861.158 123.323 872.337 123.323H886.321V70.3356H872.337V70.3235Z" fill="#00368C"/>
<path d="M785.258 141.989H747.26C723.355 141.989 705.33 122.161 705.33 95.8733C705.33 83.0741 709.987 71.5451 718.456 63.3793C726.44 55.6852 737.183 51.439 748.7 51.439C760.217 51.439 770.596 55.8304 777.915 63.7906C785.295 71.8354 789.202 82.9289 789.202 95.8733V105.309H725.472C728.509 116.016 736.759 123.117 747.272 123.117H785.271V141.989H785.258ZM725.63 86.4372H769.169C766.459 76.2995 759.116 70.3233 748.7 70.3233C739.276 70.3233 729.271 75.4285 725.63 86.4372Z" fill="#00368C"/>
<path d="M314.566 141.989H276.568C252.663 141.989 234.638 122.161 234.638 95.8733C234.638 83.0741 239.295 71.5451 247.764 63.3793C255.748 55.6852 266.491 51.439 278.007 51.439C289.524 51.439 299.904 55.8304 307.223 63.7906C314.603 71.8354 318.51 82.9289 318.51 95.8733V105.309H254.78C257.817 116.016 266.067 123.117 276.58 123.117H314.578V141.989H314.566ZM254.937 86.4372H298.477C295.767 76.2995 288.423 70.3233 278.007 70.3233C268.583 70.3233 258.579 75.4285 254.937 86.4372Z" fill="#0058E3"/>
<path d="M632.333 51.4514H623.115C618.167 51.4514 613.485 52.5643 609.275 54.5483V20.1187H590.596V141.99H609.275V83.9696C609.275 76.3239 615.469 70.13 623.115 70.13H632.333C639.979 70.13 646.173 76.3239 646.173 83.9696V141.99H664.851V83.9696C664.851 66.0047 650.286 51.4514 632.333 51.4514Z" fill="#00368C"/>
<path d="M549.803 145.365H536.968C520.237 145.365 506.627 131.755 506.627 115.024V109.895H525.306V115.024C525.306 121.448 530.532 126.674 536.956 126.674H549.791C556.215 126.674 561.441 121.448 561.441 115.024C561.441 110.209 558.417 105.83 553.904 104.124L526.274 93.684C517.164 90.2362 511.043 81.3807 511.043 71.6422C511.043 58.6494 521.616 48.0762 534.609 48.0762H553.433C566.425 48.0762 576.999 58.6494 576.999 71.6422V74.8239H558.32V71.6422C558.32 68.9565 556.13 66.7669 553.445 66.7669H534.621C531.935 66.7669 529.746 68.9565 529.746 71.6422C529.746 73.6625 531.016 75.4892 532.903 76.203L560.546 86.6553C572.281 91.0951 580.156 102.491 580.156 115.036C580.156 131.767 566.546 145.377 549.816 145.377L549.803 145.365Z" fill="#00368C"/>
<path d="M167.645 33.7782H149.182L138.671 9.28202L147.253 5.59135C151.12 3.92809 155.599 5.71929 157.252 9.58711L167.645 33.7782Z" fill="#8FC0FF"/>
<path d="M149.182 33.7781H83.8618V18.8776L125.571 0.699921C129.961 -1.17986 135.049 0.857384 136.929 5.24682L138.671 9.28195L149.182 33.7781Z" fill="url(#paint0_linear_6558_41)"/>
<path d="M0 43.2361V116.695C0 163.562 83.8618 201.551 83.8618 201.551V18.8777C63.5287 27.3219 27.4093 43.2361 0 43.2361Z" fill="#8FC0FF"/>
<path d="M167.724 43.2362V137.698C167.724 146.112 163.305 153.917 156.091 158.237L83.8618 201.551V43.2263H167.724V43.2362Z" fill="url(#paint1_linear_6558_41)"/>
<path d="M128.061 80.6938C117.206 80.6938 108.397 89.5022 108.397 100.358C108.397 111.223 117.206 120.022 128.061 120.022H167.724V80.6938H128.061ZM128.051 111.066C122.136 111.066 117.344 106.273 117.344 100.358C117.344 94.4428 122.136 89.6498 128.051 89.6498C133.966 89.6498 138.759 94.4428 138.759 100.358C138.759 106.273 133.966 111.066 128.051 111.066Z" fill="#8FC0FF"/>
<defs>
<linearGradient id="paint0_linear_6558_41" x1="116.517" y1="38.138" x2="116.517" y2="5.95543" gradientUnits="userSpaceOnUse">
<stop stop-color="#00368C"/>
<stop offset="1" stop-color="#0058E3"/>
</linearGradient>
<linearGradient id="paint1_linear_6558_41" x1="125.788" y1="198.864" x2="125.788" y2="79.6606" gradientUnits="userSpaceOnUse">
<stop stop-color="#00368C"/>
<stop offset="1" stop-color="#0058E3"/>
</linearGradient>
</defs>
</svg>
